<mxfile host="drawio-plugin" modified="2024-06-01T16:41:39.908Z" agent="5.0 (Macintosh; Intel Mac OS X 10_15_7) AppleWebKit/537.36 (KHTML, like Gecko) Chrome/97.0.4692.45 Safari/537.36" version="20.5.3" etag="w6No5TSMM_kdRZ9lysIf" type="embed"><diagram id="IkT93PwuEm1JNoc7komQ" name="Page-1"><mxGraphModel dx="850" dy="580" grid="1" gridSize="10" guides="1" tooltips="1" connect="1" arrows="1" fold="1" page="1" pageScale="1" pageWidth="850" pageHeight="1100" math="0" shadow="0"><root><mxCell id="0"/><mxCell id="1" parent="0"/><mxCell id="3" value="API Source" style="rounded=1;whiteSpace=wrap;html=1;" vertex="1" parent="1"><mxGeometry x="160" y="160" width="120" height="60" as="geometry"/></mxCell><mxCell id="4" value="Website source" style="rounded=1;whiteSpace=wrap;html=1;" vertex="1" parent="1"><mxGeometry x="365" y="160" width="120" height="60" as="geometry"/></mxCell><mxCell id="5" value="Database Source" style="shape=cylinder3;whiteSpace=wrap;html=1;boundedLbl=1;backgroundOutline=1;size=15;" vertex="1" parent="1"><mxGeometry x="190" y="30" width="60" height="80" as="geometry"/></mxCell><mxCell id="6" value="" style="endArrow=classic;html=1;rounded=0;exitX=0.5;exitY=0;exitDx=0;exitDy=0;" edge="1" parent="1" source="3" target="5"><mxGeometry width="50" height="50" relative="1" as="geometry"><mxPoint x="180" y="360" as="sourcePoint"/><mxPoint x="230" y="310" as="targetPoint"/></mxGeometry></mxCell><mxCell id="8" value="OpenAI Engine" style="rounded=1;whiteSpace=wrap;html=1;" vertex="1" parent="1"><mxGeometry x="260" y="260" width="120" height="60" as="geometry"/></mxCell><mxCell id="9" value="" style="endArrow=classic;html=1;rounded=0;exitX=0;exitY=0.5;exitDx=0;exitDy=0;" edge="1" parent="1" source="8" target="3"><mxGeometry width="50" height="50" relative="1" as="geometry"><mxPoint x="160" y="320" as="sourcePoint"/><mxPoint x="210" y="270" as="targetPoint"/><Array as="points"><mxPoint x="220" y="290"/></Array></mxGeometry></mxCell><mxCell id="10" value="" style="endArrow=classic;html=1;rounded=0;exitX=1;exitY=0.5;exitDx=0;exitDy=0;entryX=0.5;entryY=1;entryDx=0;entryDy=0;" edge="1" parent="1" source="8" target="4"><mxGeometry width="50" height="50" relative="1" as="geometry"><mxPoint x="500" y="360" as="sourcePoint"/><mxPoint x="550" y="310" as="targetPoint"/><Array as="points"><mxPoint x="425" y="290"/></Array></mxGeometry></mxCell><mxCell id="11" value="UI" style="rounded=1;whiteSpace=wrap;html=1;" vertex="1" parent="1"><mxGeometry x="260" y="350" width="120" height="60" as="geometry"/></mxCell><mxCell id="12" value="" style="endArrow=classic;html=1;rounded=0;entryX=0.5;entryY=1;entryDx=0;entryDy=0;" edge="1" parent="1" source="11" target="8"><mxGeometry width="50" height="50" relative="1" as="geometry"><mxPoint x="420" y="420" as="sourcePoint"/><mxPoint x="470" y="370" as="targetPoint"/></mxGeometry></mxCell></root></mxGraphModel></diagram></mxfile>